REM MD5 80e2e88c7a83ebfec6af1a9938b4de9b
FILE "Oyaji no Jikan - Nee-chan Hanafuda de Shoubu ya! (Japan).bin" BINARY
  TRACK 01 MODE2/2352
    INDEX 01 00:00:00
  TRACK 02 AUDIO
    INDEX 00 00:28:74
    INDEX 01 00:30:74
  TRACK 03 AUDIO
    INDEX 00 05:39:03
    INDEX 01 05:41:03
  TRACK 04 AUDIO
    INDEX 00 10:52:43
    INDEX 01 10:54:43
  TRACK 05 AUDIO
    INDEX 00 16:09:38
    INDEX 01 16:11:38
REM LEADOUT 17:09:67
